<svg width="239" height="32" viewBox="0 0 239 32" fill="none" xmlns="http://www.w3.org/2000/svg">
<g clip-path="url(#clip0_112811_3235)">
<g clip-path="url(#clip1_112811_3235)">
<g filter="url(#filter0_f_112811_3235)">
<path d="M159.513 31.6331C160.013 31.0196 159.562 30.1398 158.77 30.1268C148.664 29.9604 140.212 30.1472 129.758 30.7832C128.967 30.8314 128.555 31.7311 129.083 32.3217C132.746 36.4201 138.074 39 144.004 39C150.26 39 155.845 36.1291 159.513 31.6331Z" stroke="#4C4CFF" stroke-linecap="round" stroke-linejoin="round"/>
<path d="M126.643 9.05789C126.252 9.73778 126.827 10.5294 127.606 10.436C139.173 9.04801 147.698 8.63407 159.788 9.37026C160.575 9.41816 161.104 8.58733 160.668 7.93129C157.083 2.54757 150.958 -1 144.004 -1C136.576 -1 130.093 3.04797 126.643 9.05789Z" stroke="#4C4CFF" stroke-linecap="round" stroke-linejoin="round"/>
</g>
<g filter="url(#filter1_f_112811_3235)">
<path d="M159.513 31.6331C160.013 31.0196 159.562 30.1398 158.77 30.1268C148.664 29.9604 140.212 30.1472 129.758 30.7832C128.967 30.8314 128.555 31.7311 129.083 32.3217C132.746 36.4201 138.074 39 144.004 39C150.26 39 155.845 36.1291 159.513 31.6331Z" stroke="#4C4CFF" stroke-linecap="round" stroke-linejoin="round"/>
<path d="M126.643 9.05789C126.252 9.73778 126.827 10.5294 127.606 10.436C139.173 9.04801 147.698 8.63407 159.788 9.37026C160.575 9.41816 161.104 8.58733 160.668 7.93129C157.083 2.54757 150.958 -1 144.004 -1C136.576 -1 130.093 3.04797 126.643 9.05789Z" stroke="#4C4CFF" stroke-linecap="round" stroke-linejoin="round"/>
</g>
<g filter="url(#filter2_f_112811_3235)">
<path d="M163.859 21.4656C163.988 20.4133 163.172 19.5115 162.115 19.4264C149.235 18.3883 139.184 18.2251 125.89 18.9245C124.831 18.9802 123.99 19.8596 124.089 20.9156C124.23 22.4145 124.537 23.8654 124.991 25.2496C125.253 26.0473 126.032 26.5408 126.871 26.5118C139.383 26.0783 149.06 26.0468 161.196 26.3747C162.035 26.3973 162.811 25.8976 163.066 25.0975C163.439 23.9298 163.707 22.7155 163.859 21.4656Z" stroke="#E33CD5" stroke-linecap="round" stroke-linejoin="round"/>
</g>
<g filter="url(#filter3_f_112811_3235)">
<path d="M163.859 21.4656C163.988 20.4133 163.172 19.5115 162.115 19.4264C149.235 18.3883 139.184 18.2251 125.89 18.9245C124.831 18.9802 123.99 19.8596 124.089 20.9156C124.23 22.4145 124.537 23.8654 124.991 25.2496C125.253 26.0473 126.032 26.5408 126.871 26.5118C139.383 26.0783 149.06 26.0468 161.196 26.3747C162.035 26.3973 162.811 25.8976 163.066 25.0975C163.439 23.9298 163.707 22.7155 163.859 21.4656Z" stroke="#E33CD5" stroke-linecap="round" stroke-linejoin="round"/>
</g>
<g filter="url(#filter4_f_112811_3235)">
<ellipse cx="0.939561" cy="0.568358" rx="0.939561" ry="0.568358" transform="matrix(0.942452 0.33434 0.613155 -0.789963 136 29.4319)" stroke="#4C4CFF"/>
<ellipse cx="1.47247" cy="0.702441" rx="1.47247" ry="0.702441" transform="matrix(0.983986 0.178248 -0.368457 0.929645 151.518 9.02814)" stroke="#4C4CFF"/>
<ellipse cx="0.981646" cy="0.52683" rx="0.981646" ry="0.52683" transform="matrix(0.983986 -0.178248 -0.368457 -0.929645 149.388 29.9633)" stroke="#4C4CFF"/>
<ellipse cx="142.5" cy="10.3803" rx="1.5" ry="0.676056" transform="rotate(180 142.5 10.3803)" stroke="#4C4CFF"/>
<ellipse cx="1.47247" cy="0.702441" rx="1.47247" ry="0.702441" transform="matrix(0.983986 0.178248 -0.368457 0.929645 145.518 7)" stroke="#4C4CFF"/>
<ellipse cx="1" cy="0.507042" rx="1" ry="0.507042" transform="matrix(1 0 0 -1 143 31)" stroke="#4C4CFF"/>
<ellipse cx="1.40934" cy="0.757811" rx="1.40934" ry="0.757811" transform="matrix(0.942452 -0.33434 0.613155 0.789963 134 9.29462)" stroke="#4C4CFF"/>
</g>
<g filter="url(#filter5_f_112811_3235)">
<ellipse cx="0.939561" cy="0.568358" rx="0.939561" ry="0.568358" transform="matrix(0.942452 0.33434 0.613155 -0.789963 136 29.4319)" stroke="#4C4CFF"/>
<ellipse cx="1.47247" cy="0.702441" rx="1.47247" ry="0.702441" transform="matrix(0.983986 0.178248 -0.368457 0.929645 151.518 9.02814)" stroke="#4C4CFF"/>
<ellipse cx="0.981646" cy="0.52683" rx="0.981646" ry="0.52683" transform="matrix(0.983986 -0.178248 -0.368457 -0.929645 149.388 29.9633)" stroke="#4C4CFF"/>
<ellipse cx="142.5" cy="10.3803" rx="1.5" ry="0.676056" transform="rotate(180 142.5 10.3803)" stroke="#4C4CFF"/>
<ellipse cx="1.47247" cy="0.702441" rx="1.47247" ry="0.702441" transform="matrix(0.983986 0.178248 -0.368457 0.929645 145.518 7)" stroke="#4C4CFF"/>
<ellipse cx="1" cy="0.507042" rx="1" ry="0.507042" transform="matrix(1 0 0 -1 143 31)" stroke="#4C4CFF"/>
<ellipse cx="1.40934" cy="0.757811" rx="1.40934" ry="0.757811" transform="matrix(0.942452 -0.33434 0.613155 0.789963 134 9.29462)" stroke="#4C4CFF"/>
</g>
<ellipse cx="0.939561" cy="0.568358" rx="0.939561" ry="0.568358" transform="matrix(0.942452 0.33434 0.613155 -0.789963 136 29.4319)" stroke="#4C4CFF"/>
<ellipse cx="1.47247" cy="0.702441" rx="1.47247" ry="0.702441" transform="matrix(0.983986 0.178248 -0.368457 0.929645 151.518 9.02814)" stroke="#4C4CFF"/>
<ellipse cx="0.981646" cy="0.52683" rx="0.981646" ry="0.52683" transform="matrix(0.983986 -0.178248 -0.368457 -0.929645 149.388 29.9633)" stroke="#4C4CFF"/>
<ellipse cx="142.5" cy="10.3803" rx="1.5" ry="0.676056" transform="rotate(180 142.5 10.3803)" stroke="#4C4CFF"/>
<ellipse cx="1.47247" cy="0.702441" rx="1.47247" ry="0.702441" transform="matrix(0.983986 0.178248 -0.368457 0.929645 145.518 7)" stroke="#4C4CFF"/>
<ellipse cx="1" cy="0.507042" rx="1" ry="0.507042" transform="matrix(1 0 0 -1 143 31)" stroke="#4C4CFF"/>
<ellipse cx="1.40934" cy="0.757811" rx="1.40934" ry="0.757811" transform="matrix(0.942452 -0.33434 0.613155 0.789963 134 9.29462)" stroke="#4C4CFF"/>
<ellipse cx="0.939561" cy="0.568358" rx="0.939561" ry="0.568358" transform="matrix(0.942452 0.33434 0.613155 -0.789963 136 29.4319)" stroke="white" stroke-width="0.5"/>
<ellipse cx="1.47247" cy="0.702441" rx="1.47247" ry="0.702441" transform="matrix(0.983986 0.178248 -0.368457 0.929645 151.518 9.02814)" stroke="white" stroke-width="0.5"/>
<ellipse cx="0.981646" cy="0.52683" rx="0.981646" ry="0.52683" transform="matrix(0.983986 -0.178248 -0.368457 -0.929645 149.388 29.9633)" stroke="white" stroke-width="0.5"/>
<ellipse cx="142.5" cy="10.3803" rx="1.5" ry="0.676056" transform="rotate(180 142.5 10.3803)" stroke="white" stroke-width="0.5"/>
<ellipse cx="1.47247" cy="0.702441" rx="1.47247" ry="0.702441" transform="matrix(0.983986 0.178248 -0.368457 0.929645 145.518 7)" stroke="white" stroke-width="0.5"/>
<ellipse cx="1" cy="0.507042" rx="1" ry="0.507042" transform="matrix(1 0 0 -1 143 31)" stroke="white" stroke-width="0.5"/>
<ellipse cx="1.40934" cy="0.757811" rx="1.40934" ry="0.757811" transform="matrix(0.942452 -0.33434 0.613155 0.789963 134 9.29462)" stroke="white" stroke-width="0.5"/>
<path d="M2.8 19.544C1.968 19.544 1.29067 19.304 0.768 18.824C0.256 18.3333 0 17.672 0 16.84C0 15.7413 0.432 14.9467 1.296 14.456C1.712 14.2213 2.21333 14.104 2.8 14.104H14.128V16.2H3.328C2.74133 16.2 2.448 16.424 2.448 16.872C2.448 17.32 2.74133 17.544 3.328 17.544L11.808 17.56C12.64 17.56 13.312 17.8053 13.824 18.296C14.3467 18.7867 14.608 19.448 14.608 20.28C14.608 21.4 14.176 22.1947 13.312 22.664C12.9067 22.888 12.4053 23 11.808 23H0V20.904L11.28 20.92C11.8667 20.92 12.16 20.6907 12.16 20.232C12.16 19.784 11.8667 19.56 11.28 19.56L2.8 19.544Z" fill="white"/>
<path d="M29.425 23H21.361C20.4223 23 19.745 22.7867 19.329 22.36C19.0623 22.0827 18.8863 21.768 18.801 21.416C18.737 21.1813 18.705 20.8187 18.705 20.328V16.2H17.105V14.104H18.705V10.552H21.377V14.104H29.425V16.2H21.377V19.672C21.377 20.1627 21.489 20.4987 21.713 20.68C21.8943 20.8293 22.1983 20.904 22.625 20.904H29.425V23Z" fill="white"/>
<path d="M36.8809 20.904H46.1769V23H36.5289C35.1422 23 34.0809 22.6107 33.3449 21.832C32.6195 21.0427 32.2569 19.9493 32.2569 18.552C32.2569 17.1547 32.6195 16.0667 33.3449 15.288C34.0809 14.4987 35.1422 14.104 36.5289 14.104H46.1769V16.2H36.8809C36.3902 16.2 35.9849 16.3387 35.6649 16.616C35.5155 16.744 35.3235 17.0427 35.0889 17.512L35.0729 17.544H46.1769V19.544H35.0729L35.0889 19.592C35.3022 20.0507 35.4942 20.3493 35.6649 20.488C35.9849 20.7653 36.3902 20.904 36.8809 20.904Z" fill="white"/>
<path d="M53.4002 23C51.3522 23 50.0349 22.168 49.4482 20.504C49.2242 19.864 49.1122 19.192 49.1122 18.488V14.072H52.0243V18.216C52.0243 18.9093 52.2376 19.4533 52.6642 19.848C53.0056 20.168 53.4962 20.328 54.1362 20.328H62.5042V23H53.4002Z" fill="white"/>
<path d="M69.8177 23C67.7697 23 66.4524 22.168 65.8657 20.504C65.6417 19.864 65.5297 19.192 65.5297 18.488V14.072H68.4417V18.216C68.4417 18.9093 68.6551 19.4533 69.0817 19.848C69.4231 20.168 69.9137 20.328 70.5537 20.328H78.9218V23H69.8177Z" fill="white"/>
<path d="M82.5553 16.2V14.104H93.2272C94.2832 14.104 95.1206 14.3813 95.7393 14.936C96.1233 15.2773 96.3846 15.6773 96.5233 16.136C96.6193 16.4773 96.6673 16.9573 96.6673 17.576V23H90.7073H84.7473C83.8726 23 83.1846 22.76 82.6833 22.28C82.1819 21.8 81.9313 21.128 81.9313 20.264C81.9313 19.4 82.1819 18.7333 82.6833 18.264C83.1953 17.784 83.8833 17.544 84.7473 17.544H93.9953V17.464C93.9953 16.8027 93.7499 16.4027 93.2593 16.264C93.1099 16.2213 92.8806 16.2 92.5713 16.2H82.5553ZM93.9953 20.904V19.544H85.4512C84.8859 19.544 84.6032 19.7733 84.6032 20.232C84.6032 20.68 84.8859 20.904 85.4512 20.904H93.9953Z" fill="white"/>
<path d="M110.182 17.24C110.182 16.9413 110.087 16.7067 109.895 16.536C109.756 16.408 109.543 16.344 109.255 16.344L102.614 16.328V23H99.9425V14.104L109.702 14.072C110.748 14.072 111.548 14.3653 112.103 14.952C112.604 15.4853 112.854 16.0987 112.854 16.792V17.72H110.182V17.24Z" fill="white"/>
<path d="M180.608 21.904H189.904V24H180.256C178.87 24 177.808 23.6107 177.072 22.832C176.347 22.0427 175.984 20.9493 175.984 19.552C175.984 18.1547 176.347 17.0667 177.072 16.288C177.808 15.4987 178.87 15.104 180.256 15.104H189.904V17.2H180.608C180.118 17.2 179.712 17.3387 179.392 17.616C179.243 17.744 179.051 18.0427 178.816 18.512L178.8 18.544V20.544L178.816 20.592C179.03 21.0507 179.222 21.3493 179.392 21.488C179.712 21.7653 180.118 21.904 180.608 21.904Z" fill="white"/>
<path d="M219.584 18.24C219.584 17.9413 219.488 17.7067 219.296 17.536C219.157 17.408 218.944 17.344 218.656 17.344L212.016 17.328V24H209.344V15.104L219.104 15.072C220.149 15.072 220.949 15.3653 221.504 15.952C222.005 16.4853 222.256 17.0987 222.256 17.792V18.72H219.584V18.24Z" fill="white"/>
<path d="M227.347 20.544C226.515 20.544 225.838 20.304 225.315 19.824C224.803 19.3333 224.547 18.672 224.547 17.84C224.547 16.7413 224.979 15.9467 225.843 15.456C226.259 15.2213 226.76 15.104 227.347 15.104H238.675V17.2H227.875C227.288 17.2 226.995 17.424 226.995 17.872C226.995 18.32 227.288 18.544 227.875 18.544L236.355 18.56C237.187 18.56 237.859 18.8053 238.371 19.296C238.894 19.7867 239.155 20.448 239.155 21.28C239.155 22.4 238.723 23.1947 237.859 23.664C237.454 23.888 236.952 24 236.355 24H224.547V21.904L235.827 21.92C236.414 21.92 236.707 21.6907 236.707 21.232C236.707 20.784 236.414 20.56 235.827 20.56L227.347 20.544Z" fill="white"/>
<path d="M192.555 17.2V15.104H203.227C204.283 15.104 205.12 15.3813 205.739 15.936C206.123 16.2773 206.384 16.6773 206.523 17.136C206.619 17.4773 206.667 17.9573 206.667 18.576V24H200.707H194.747C193.872 24 193.184 23.76 192.683 23.28C192.182 22.8 191.931 22.128 191.931 21.264C191.931 20.4 192.182 19.7333 192.683 19.264C193.195 18.784 193.883 18.544 194.747 18.544H203.995V18.464C203.995 17.8027 203.75 17.4027 203.259 17.264C203.11 17.2213 202.881 17.2 202.571 17.2H192.555ZM203.995 21.904V20.544H195.451C194.886 20.544 194.603 20.7733 194.603 21.232C194.603 21.68 194.886 21.904 195.451 21.904H203.995Z" fill="white"/>
</g>
<g filter="url(#filter6_f_112811_3235)">
<path d="M131 22.5C133 23.1667 135 23.1667 137 22.5C139 21.8333 141 21.8333 143 22.5C145 23.1667 147 23.1667 149 22.5C151 21.8333 153 21.8333 155 22.5C157 23.1667 159 23.1667 161 22.5" stroke="#00CCCC" stroke-linecap="round" stroke-linejoin="round"/>
</g>
<path d="M133.297 3.07178C130.633 3.53271 128.422 6.43896 127.758 10.3374L127.617 11.1577L126.453 11.2046C125.141 11.2515 124.828 11.353 124.406 11.8608C124.062 12.2827 124 12.6108 124 13.9702C124 15.3608 124.062 15.6733 124.438 16.1108C124.734 16.4468 125.094 16.6187 125.703 16.7046C125.922 16.7358 126.109 16.7671 126.109 16.7671C126.109 16.7749 126.039 16.9702 125.953 17.189C125.625 18.0483 125.562 18.7905 125.562 21.6265V24.2983L125.359 24.4858C124.961 24.8608 124.898 25.0718 124.898 26.0796C124.898 26.9624 124.914 27.0405 125.109 27.3843C125.344 27.7671 125.68 28.0249 126.086 28.1108L126.336 28.1577L126.359 29.3218C126.383 30.4702 126.383 30.4858 126.617 30.814C126.766 31.0249 127.008 31.2358 127.273 31.3687L127.688 31.5874H130.539C132.562 31.5874 133.492 31.5562 133.719 31.4937C134.141 31.3687 134.719 30.7905 134.844 30.3687C134.891 30.189 134.938 29.6187 134.938 29.0952V28.1499H136.938C138.883 28.1499 138.953 28.1577 139.227 28.3218C139.508 28.5015 139.508 28.5015 143.602 28.5249L147.695 28.5483L148.102 28.3452C148.5 28.1499 148.531 28.1499 150.469 28.1499H152.422L152.453 29.228C152.484 30.439 152.586 30.7515 153.102 31.1812C153.578 31.5718 153.75 31.5874 156.82 31.5874C159.664 31.5874 159.664 31.5874 160.07 31.3999C160.844 31.0327 161.109 30.4233 161.109 28.978V28.1655L161.328 28.1108C161.695 28.0249 162.117 27.6968 162.297 27.3452C162.43 27.0952 162.477 26.8452 162.5 26.2749C162.539 25.3687 162.438 24.9546 162.078 24.564L161.812 24.2671V23.1968C161.812 22.1655 161.805 22.1187 161.617 21.939C161.422 21.7358 161.125 21.689 160.875 21.8218C160.656 21.939 160.562 22.3765 160.562 23.2437V24.0093H154.531H148.492L148.109 23.814L147.727 23.6187H143.688H139.648L139.266 23.814L138.883 24.0093H134.375H129.859V22.9702V21.9233L130.312 22.0796C130.961 22.2983 131.844 22.2437 132.461 21.939C132.992 21.6733 133.625 21.0327 133.867 20.5171C134.008 20.2046 134.039 20.0015 134.039 19.3218C134.039 18.5405 134.031 18.478 133.773 18.0093C133.453 17.4155 132.961 16.9546 132.375 16.6812C132.016 16.5171 131.805 16.478 131.289 16.478L130.656 16.4702L130.781 16.2515C131.039 15.8062 131.758 15.103 132.336 14.7124L132.93 14.314L133.594 14.3374L134.25 14.3608L135.445 16.314C136.719 18.4077 137.203 19.0015 137.867 19.3374C138.766 19.7983 138.711 19.7905 143.68 19.7905C148.617 19.7905 148.633 19.7905 149.461 19.3608C150.203 18.9858 150.656 18.4312 151.961 16.2827L153.164 14.3062L154.852 14.3452C156.719 14.3843 156.977 14.4312 157.945 14.9312C158.734 15.3452 159.672 16.2905 160.039 17.0562C160.383 17.7671 160.562 18.4233 160.562 19.0093C160.562 19.564 160.688 20.0015 160.875 20.103C161.125 20.2358 161.422 20.189 161.633 19.978C161.828 19.7827 161.836 19.7593 161.789 19.0249C161.75 18.3765 161.531 17.3921 161.312 16.8921C161.266 16.7827 161.352 16.7593 161.945 16.7202C162.797 16.6655 163.219 16.5015 163.562 16.1108C163.938 15.6733 164 15.3608 164 13.9702C164 12.6108 163.938 12.2827 163.594 11.8608C163.141 11.3218 162.891 11.2515 161.227 11.2046L159.742 11.1577L159.688 10.689C159.594 9.98584 159.25 8.66553 158.945 7.87646C157.961 5.29834 156.211 3.50928 154.273 3.11084C153.812 3.01709 152.195 2.99365 143.688 3.00146C138.164 3.00928 133.492 3.04053 133.297 3.07178ZM144.836 5.79834C144.898 5.97021 145 6.04834 145.219 6.11084C145.422 6.16553 146.938 6.19678 149.594 6.19678H153.656L154.062 6.3999C155.055 6.89209 155.984 8.47021 156.43 10.4155C156.516 10.7827 156.602 11.5483 156.633 12.1343L156.68 13.189L156.219 13.1499C155.695 13.103 155.773 13.2202 155.555 12.0562C155.391 11.2124 154.93 10.3921 154.203 9.67334C153.047 8.51709 151.695 8.04053 150.133 8.23584C147.883 8.51709 146.086 10.3452 145.828 12.5952L145.773 13.0718H138.773C134.922 13.0718 131.539 13.0952 131.25 13.1265L130.719 13.1733V12.5562C130.719 10.103 131.773 7.4624 133.109 6.54053L133.547 6.23584L138.172 6.19678C143.109 6.15771 143.086 6.15771 143.188 5.76709C143.234 5.57959 143.25 5.57178 143.992 5.57178H144.75L144.836 5.79834ZM151.43 9.47803C152.812 9.74365 153.984 10.8608 154.352 12.2515C154.547 13.0093 154.531 13.0718 154.125 13.0718H153.789L153.695 12.6187C153.562 11.939 153.266 11.4155 152.75 10.9312C152.133 10.3687 151.594 10.1577 150.758 10.1577C150.383 10.1577 150 10.2046 149.789 10.2827L149.453 10.3999L149.672 10.1655C150.047 9.76709 150.586 9.40771 150.805 9.3999C150.922 9.3999 151.195 9.43896 151.43 9.47803ZM151.406 11.478C151.961 11.7046 152.508 12.4155 152.516 12.8921V13.0718H150.719H148.922L148.969 12.853C149 12.7358 149.055 12.5562 149.094 12.4468C149.406 11.603 150.555 11.1187 151.406 11.478ZM127.516 13.5952L127.508 14.8296L127.195 15.1577L126.883 15.4937H126.188C125.172 15.4937 125.172 15.4937 125.172 14.0171C125.172 13.3765 125.195 12.7905 125.219 12.7202C125.32 12.4702 125.719 12.3765 126.641 12.3687H127.516V13.5952ZM162.43 12.4546C162.562 12.5015 162.711 12.603 162.75 12.6812C162.797 12.7593 162.828 13.353 162.828 14.0015C162.828 15.5483 162.875 15.4937 161.516 15.4937H160.516L160.188 15.1577L159.859 14.8218V13.5952V12.3687H161.023C161.664 12.3687 162.289 12.4077 162.43 12.4546ZM131.961 17.8374C132.492 18.103 132.906 18.7593 132.906 19.3296C132.906 19.7515 132.727 20.1499 132.367 20.5015C132.086 20.7905 131.922 20.8843 131.578 20.9624C130.867 21.1187 130.203 20.853 129.805 20.2515C129.609 19.9624 129.586 19.8452 129.586 19.314C129.586 18.7671 129.609 18.6812 129.82 18.3765C130.281 17.7202 131.258 17.478 131.961 17.8374ZM147.578 24.9155C147.742 25.0249 147.75 25.0874 147.75 26.0796C147.75 26.9233 147.727 27.1499 147.625 27.2437C147.516 27.353 147.055 27.3687 143.711 27.3687C140.281 27.3687 139.898 27.353 139.766 27.2358C139.641 27.1265 139.625 26.978 139.625 26.0718C139.625 25.0874 139.633 25.0249 139.797 24.9155C139.953 24.8062 140.453 24.7905 143.688 24.7905C146.922 24.7905 147.422 24.8062 147.578 24.9155ZM138.453 26.0796V26.978H132.359H126.266L126.141 26.7827C125.953 26.4937 126.016 25.4468 126.227 25.2905C126.352 25.1968 127.359 25.1812 132.414 25.1812H138.453V26.0796ZM161.188 25.3374C161.32 25.4702 161.344 25.5952 161.344 26.0952C161.344 27.0796 162.047 26.978 155 26.978H148.922V26.0796V25.1812H154.977C160.93 25.1812 161.031 25.1812 161.188 25.3374Z" fill="white"/>
<path d="M155.398 16.5405C154.602 16.7515 153.914 17.3452 153.539 18.1421C153.359 18.5249 153.336 18.6812 153.336 19.3608C153.336 20.0874 153.359 20.1733 153.586 20.6108C153.883 21.1812 154.359 21.6499 154.938 21.9468C155.328 22.1499 155.445 22.1733 156.148 22.1733C156.828 22.1733 156.984 22.1499 157.375 21.9624C159.016 21.1968 159.562 19.228 158.562 17.7046C157.914 16.7124 156.578 16.2202 155.398 16.5405ZM156.977 17.8608C157.477 18.1265 157.773 18.5874 157.812 19.1577C157.883 20.1187 157.375 20.7983 156.438 21.0015C155.688 21.1655 154.742 20.5327 154.555 19.728C154.367 18.9546 154.719 18.1968 155.445 17.814C155.812 17.6187 156.562 17.6421 156.977 17.8608Z" fill="white"/>
<path d="M138.797 20.8374C138.406 21.0093 138.32 21.5171 138.633 21.8062L138.812 21.978H143.695H148.586L148.75 21.7983C149.062 21.4624 148.945 20.9624 148.523 20.814C148.125 20.6812 139.117 20.7046 138.797 20.8374Z" fill="white"/>
</g>
<defs>
<filter id="filter0_f_112811_3235" x="122.012" y="-5.5" width="43.3184" height="49" filterUnits="userSpaceOnUse" color-interpolation-filters="sRGB">
<feFlood flood-opacity="0" result="BackgroundImageFix"/>
<feBlend mode="normal" in="SourceGraphic" in2="BackgroundImageFix" result="shape"/>
<feGaussianBlur stdDeviation="2" result="effect1_foregroundBlur_112811_3235"/>
</filter>
<filter id="filter1_f_112811_3235" x="122.012" y="-5.5" width="43.3184" height="49" filterUnits="userSpaceOnUse" color-interpolation-filters="sRGB">
<feFlood flood-opacity="0" result="BackgroundImageFix"/>
<feBlend mode="normal" in="SourceGraphic" in2="BackgroundImageFix" result="shape"/>
<feGaussianBlur stdDeviation="2" result="effect1_foregroundBlur_112811_3235"/>
</filter>
<filter id="filter2_f_112811_3235" x="119.581" y="14" width="48.792" height="17.0129" filterUnits="userSpaceOnUse" color-interpolation-filters="sRGB">
<feFlood flood-opacity="0" result="BackgroundImageFix"/>
<feBlend mode="normal" in="SourceGraphic" in2="BackgroundImageFix" result="shape"/>
<feGaussianBlur stdDeviation="2" result="effect1_foregroundBlur_112811_3235"/>
</filter>
<filter id="filter3_f_112811_3235" x="119.581" y="14" width="48.792" height="17.0129" filterUnits="userSpaceOnUse" color-interpolation-filters="sRGB">
<feFlood flood-opacity="0" result="BackgroundImageFix"/>
<feBlend mode="normal" in="SourceGraphic" in2="BackgroundImageFix" result="shape"/>
<feGaussianBlur stdDeviation="2" result="effect1_foregroundBlur_112811_3235"/>
</filter>
<filter id="filter4_f_112811_3235" x="129.823" y="2.73822" width="28.884" height="32.7618" filterUnits="userSpaceOnUse" color-interpolation-filters="sRGB">
<feFlood flood-opacity="0" result="BackgroundImageFix"/>
<feBlend mode="normal" in="SourceGraphic" in2="BackgroundImageFix" result="shape"/>
<feGaussianBlur stdDeviation="2" result="effect1_foregroundBlur_112811_3235"/>
</filter>
<filter id="filter5_f_112811_3235" x="129.823" y="2.73822" width="28.884" height="32.7618" filterUnits="userSpaceOnUse" color-interpolation-filters="sRGB">
<feFlood flood-opacity="0" result="BackgroundImageFix"/>
<feBlend mode="normal" in="SourceGraphic" in2="BackgroundImageFix" result="shape"/>
<feGaussianBlur stdDeviation="2" result="effect1_foregroundBlur_112811_3235"/>
</filter>
<filter id="filter6_f_112811_3235" x="126.5" y="17.5" width="39.0005" height="10" filterUnits="userSpaceOnUse" color-interpolation-filters="sRGB">
<feFlood flood-opacity="0" result="BackgroundImageFix"/>
<feBlend mode="normal" in="SourceGraphic" in2="BackgroundImageFix" result="shape"/>
<feGaussianBlur stdDeviation="2" result="effect1_foregroundBlur_112811_3235"/>
</filter>
<clipPath id="clip0_112811_3235">
<rect width="239" height="32" fill="white"/>
</clipPath>
<clipPath id="clip1_112811_3235">
<rect width="289.155" height="40" fill="white" transform="translate(0 -1)"/>
</clipPath>
</defs>
</svg>
