<svg version="1.0" xmlns="http://www.w3.org/2000/svg"
 width="24" height="24" viewBox="0 0 512.000000 512.000000"
 preserveAspectRatio="xMidYMid meet">

<g transform="translate(0.000000,512.000000) scale(0.100000,-0.100000)">
<path d="M2370 5114 c-19 -2 -78 -9 -130 -15 -791 -90 -1522 -586 -1924 -1305
-146 -262 -252 -588 -297 -914 -18 -125 -18 -515 0 -640 105 -762 511 -1408
1147 -1826 837 -552 1955 -550 2796 4 1266 835 1539 2571 591 3747 -409 507
-974 829 -1633 930 -100 15 -472 28 -550 19z m110 -247 c0 -150 19 -196 80
-196 61 0 80 46 80 196 0 76 3 103 13 103 39 0 239 -23 314 -35 83 -15 254
-54 261 -60 2 -2 -13 -55 -34 -118 -42 -133 -41 -159 10 -183 29 -14 37 -15
62 -3 25 12 34 30 69 132 47 140 31 136 214 54 111 -50 361 -192 361 -204 0
-3 -31 -50 -70 -104 -38 -54 -70 -107 -70 -119 0 -55 51 -90 101 -70 16 7 54
49 94 106 37 52 69 94 72 94 32 0 423 -391 423 -423 0 -3 -44 -37 -99 -76
-103 -73 -120 -97 -101 -145 10 -28 38 -46 70 -46 12 0 65 32 119 70 54 39
101 70 104 70 13 0 155 -253 204 -364 82 -181 86 -164 -54 -211 -102 -35 -120
-44 -132 -69 -12 -25 -11 -33 3 -62 24 -51 50 -52 183 -10 63 21 116 36 118
34 6 -7 45 -178 60 -262 19 -115 38 -313 30 -326 -4 -6 -59 -10 -130 -10 -115
0 -126 -2 -145 -22 -23 -25 -26 -65 -6 -90 22 -29 63 -38 177 -38 86 0 109 -3
109 -14 0 -37 -22 -231 -36 -311 -14 -84 -53 -256 -59 -263 -2 -2 -55 13 -118
34 -133 42 -159 41 -183 -10 -14 -29 -15 -37 -3 -62 12 -25 30 -34 132 -69
140 -47 136 -30 54 -211 -49 -111 -191 -364 -204 -364 -3 0 -50 31 -104 70
-54 38 -107 70 -119 70 -54 0 -90 -51 -70 -100 6 -15 51 -55 105 -94 52 -37
95 -70 95 -73 0 -32 -391 -423 -423 -423 -3 0 -37 44 -76 99 -73 103 -97 120
-145 101 -28 -10 -46 -38 -46 -70 0 -12 32 -65 70 -119 39 -54 70 -101 70
-104 0 -12 -250 -154 -361 -204 -183 -82 -167 -86 -214 54 -35 102 -44 120
-69 132 -25 12 -33 11 -62 -3 -51 -24 -52 -50 -10 -183 21 -63 36 -116 34
-118 -7 -6 -178 -45 -261 -60 -75 -12 -275 -35 -314 -35 -10 0 -13 27 -13 103
0 150 -19 196 -80 196 -61 0 -80 -46 -80 -197 l0 -103 -82 6 c-148 12 -486 72
-506 90 -2 2 13 55 34 118 42 133 41 159 -10 183 -29 14 -37 15 -62 3 -25 -12
-34 -30 -69 -132 -47 -140 -30 -136 -211 -54 -111 49 -364 191 -364 204 0 3
32 50 70 104 39 54 70 107 70 119 0 32 -18 60 -46 70 -46 18 -71 2 -133 -84
-33 -44 -66 -90 -74 -101 -14 -19 -17 -18 -73 30 -94 79 -220 204 -295 291
-38 45 -69 84 -69 86 0 3 42 35 94 73 55 39 99 79 106 95 20 49 -16 100 -70
100 -12 0 -65 -32 -119 -70 -54 -39 -101 -70 -104 -70 -12 0 -154 250 -204
361 -82 183 -86 167 54 214 102 35 120 44 132 69 12 25 11 33 -3 62 -24 51
-50 52 -183 10 -63 -21 -116 -36 -118 -34 -6 7 -45 178 -60 261 -12 75 -35
275 -35 315 0 9 29 12 109 12 114 0 155 9 177 38 20 25 17 65 -6 90 -19 20
-30 22 -145 22 -71 0 -126 4 -130 10 -9 15 14 240 36 360 18 93 48 219 55 228
1 2 54 -13 117 -34 133 -42 159 -41 183 10 14 29 15 37 3 62 -12 25 -30 34
-132 69 -140 47 -136 31 -54 213 51 113 191 362 204 362 3 0 50 -31 104 -70
54 -38 107 -70 119 -70 54 0 90 51 70 100 -7 16 -51 56 -106 95 -52 38 -94 70
-94 73 0 11 138 167 217 243 88 86 195 179 206 179 3 0 35 -42 72 -94 40 -57
78 -99 94 -106 50 -20 101 15 101 70 0 12 -32 67 -72 122 -84 117 -93 94 80
195 113 65 343 172 372 173 10 0 28 -37 55 -117 35 -102 44 -120 69 -132 25
-12 33 -11 62 3 51 24 52 50 10 183 -21 63 -36 116 -34 118 7 6 180 46 267 61
90 15 220 30 289 33 l32 1 0 -103z"/>
<path d="M2355 4358 c-203 -23 -419 -88 -613 -185 -117 -58 -152 -88 -152
-130 0 -29 41 -73 69 -73 11 0 70 27 133 59 695 363 1536 195 2042 -409 532
-634 509 -1567 -55 -2183 -594 -650 -1601 -717 -2279 -151 -479 399 -697 1038
-559 1634 74 321 210 567 451 816 62 65 108 121 108 132 0 36 -38 72 -77 72
-32 0 -47 -11 -130 -92 -185 -181 -309 -366 -406 -604 -225 -549 -166 -1177
156 -1668 81 -123 157 -214 268 -321 604 -580 1526 -669 2228 -215 128 83 218
158 331 277 251 263 408 576 477 953 24 134 24 447 -1 585 -94 514 -374 941
-803 1223 -343 225 -775 327 -1188 280z"/>
<path d="M2185 4021 c-399 -103 -724 -351 -936 -713 -40 -67 -47 -104 -29
-138 12 -23 495 -184 600 -201 232 -36 467 109 561 346 22 58 23 72 27 370 3
305 3 311 -18 338 -28 35 -61 35 -205 -2z m65 -611 c-40 -189 -236 -325 -418
-290 -82 15 -432 130 -432 142 0 6 21 40 46 76 175 251 436 438 731 526 l78
23 3 -211 c2 -134 -1 -231 -8 -266z"/>
<path d="M2730 4023 c-21 -27 -21 -33 -18 -338 4 -286 6 -314 25 -367 88 -236
332 -386 568 -348 107 17 583 177 595 200 19 35 10 72 -36 150 -74 124 -140
208 -249 315 -196 194 -431 326 -695 390 -137 33 -163 32 -190 -2z m320 -195
c175 -69 338 -176 469 -308 87 -87 201 -233 201 -258 0 -12 -351 -127 -432
-142 -151 -29 -326 67 -396 218 -27 56 -27 61 -30 304 l-4 247 69 -19 c37 -11
93 -30 123 -42z"/>
<path d="M2512 3140 c-47 -44 -15 -130 48 -130 38 0 70 34 70 75 0 41 -32 75
-70 75 -14 0 -36 -9 -48 -20z"/>
<path d="M1096 2838 c-22 -20 -27 -37 -37 -118 -39 -328 54 -713 242 -993 65
-97 176 -227 211 -247 51 -28 71 -10 235 215 85 116 167 235 182 265 108 208
71 452 -93 616 -34 34 -88 75 -121 92 -59 29 -548 192 -578 192 -9 0 -27 -10
-41 -22z m339 -228 c232 -77 281 -105 342 -194 47 -69 66 -143 61 -237 -6 -99
-27 -142 -164 -329 -58 -80 -112 -154 -120 -164 -13 -19 -14 -19 -34 -1 -39
35 -142 197 -190 298 -84 176 -130 382 -130 583 0 93 4 114 19 114 3 0 100
-32 216 -70z"/>
<path d="M2463 2842 c-251 -90 -272 -432 -35 -549 81 -40 183 -40 264 0 107
53 163 144 163 267 0 85 -21 142 -74 203 -72 81 -213 117 -318 79z m167 -152
c45 -23 80 -80 80 -131 0 -73 -76 -149 -150 -149 -50 0 -107 35 -130 80 -25
50 -25 90 0 140 37 73 124 99 200 60z"/>
<path d="M3694 2772 c-162 -54 -282 -100 -318 -122 -150 -91 -246 -264 -246
-444 0 -93 15 -158 54 -235 31 -61 305 -444 343 -478 43 -40 71 -31 146 49
131 138 253 344 318 539 65 195 93 448 70 639 -10 81 -15 98 -37 118 -14 12
-35 22 -47 21 -12 0 -139 -40 -283 -87z m220 -237 c-2 -214 -45 -398 -136
-580 -43 -86 -145 -240 -178 -270 -20 -18 -21 -18 -34 1 -8 10 -62 84 -120
164 -137 187 -158 230 -164 329 -5 94 14 168 61 237 60 88 111 117 337 193
113 38 212 69 220 68 13 -2 15 -25 14 -142z"/>
<path d="M2016 2779 c-52 -41 -23 -129 43 -129 71 0 101 80 47 127 -33 28 -56
29 -90 2z"/>
<path d="M3014 2777 c-54 -47 -24 -127 47 -127 66 0 95 88 43 129 -34 27 -57
26 -90 -2z"/>
<path d="M2202 2187 c-31 -33 -29 -80 4 -106 44 -34 86 -26 110 21 39 75 -57
146 -114 85z"/>
<path d="M2832 2203 c-7 -3 -19 -18 -28 -35 -13 -25 -13 -35 -3 -59 21 -52 68
-63 113 -28 66 52 -1 155 -82 122z"/>
<path d="M2473 1930 c-109 -20 -233 -86 -299 -161 -37 -41 -315 -429 -331
-459 -20 -42 -1 -79 57 -107 344 -170 755 -198 1125 -78 219 72 284 119 252
184 -27 54 -327 459 -365 492 -119 105 -289 155 -439 129z m152 -151 c75 -14
145 -49 193 -97 40 -40 272 -356 272 -370 0 -12 -177 -69 -275 -89 -115 -23
-390 -23 -509 0 -95 19 -252 69 -268 85 -11 11 200 309 264 374 46 46 106 78
178 94 71 16 76 16 145 3z"/>
</g>
</svg>
